<?xml version="1.0" encoding="utf-8"?>
<!-- Generator: Adobe Illustrator 15.1.0, SVG Export Plug-In . SVG Version: 6.00 Build 0)  -->
<!DOCTYPE svg PUBLIC "-//W3C//DTD SVG 1.1//EN" "http://www.w3.org/Graphics/SVG/1.1/DTD/svg11.dtd">
<svg version="1.1"
	 id="svg3093" xmlns:dc="http://purl.org/dc/elements/1.1/" xmlns:cc="http://creativecommons.org/ns#" xmlns:svg="http://www.w3.org/2000/svg" xmlns:rdf="http://www.w3.org/1999/02/22-rdf-syntax-ns#" xmlns:sodipodi="http://sodipodi.sourceforge.net/DTD/sodipodi-0.dtd" xmlns:inkscape="http://www.inkscape.org/namespaces/inkscape" inkscape:version="0.48.1 r9760" sodipodi:docname="pony.svg"
	 xmlns="http://www.w3.org/2000/svg" xmlns:xlink="http://www.w3.org/1999/xlink" x="0px" y="0px" width="255.039px"
	 height="98.882px" viewBox="0 0 255.039 98.882" enable-background="new 0 0 255.039 98.882" xml:space="preserve">
<defs>
	
	
		<inkscape:perspective  inkscape:persp3d-origin="372.04724 : 350.78739 : 1" id="perspective10836-3" inkscape:vp_z="744.09448 : 526.18109 : 1" inkscape:vp_y="0 : 1000 : 0" inkscape:vp_x="0 : 526.18109 : 1" sodipodi:type="inkscape:persp3d">
		</inkscape:perspective>
	
		<inkscape:perspective  inkscape:persp3d-origin="0.5 : 0.33333333 : 1" id="perspective10704-4" inkscape:vp_z="1 : 0.5 : 1" inkscape:vp_y="0 : 1000 : 0" inkscape:vp_x="0 : 0.5 : 1" sodipodi:type="inkscape:persp3d">
		</inkscape:perspective>
	
		<inkscape:perspective  inkscape:persp3d-origin="0.5 : 0.33333333 : 1" id="perspective10704" inkscape:vp_z="1 : 0.5 : 1" inkscape:vp_y="0 : 1000 : 0" inkscape:vp_x="0 : 0.5 : 1" sodipodi:type="inkscape:persp3d">
		</inkscape:perspective>
	
		<inkscape:perspective  inkscape:persp3d-origin="372.04724 : 350.78739 : 1" id="perspective10836" inkscape:vp_z="744.09448 : 526.18109 : 1" inkscape:vp_y="0 : 1000 : 0" inkscape:vp_x="0 : 526.18109 : 1" sodipodi:type="inkscape:persp3d">
		</inkscape:perspective>
</defs>
<sodipodi:namedview  id="namedview3095" fit-margin-bottom="0" fit-margin-right="0" fit-margin-left="0" inkscape:guide-bbox="true" showguides="true" inkscape:current-layer="svg3093" inkscape:window-maximized="1" inkscape:window-y="0" inkscape:window-x="0" inkscape:cy="6.18234" inkscape:cx="109.07953" fit-margin-top="0" inkscape:zoom="1" showgrid="false" inkscape:window-height="852" inkscape:window-width="1440" inkscape:pageshadow="2" inkscape:pageopacity="0" guidetolerance="10" gridtolerance="10" objecttolerance="10" pagecolor="#ffffff" bordercolor="#666666" borderopacity="1">
	<sodipodi:guide  id="guide4335" orientation="1,0" position="-418.32468,-209.8025"></sodipodi:guide>
</sodipodi:namedview>
<g id="layer1" transform="translate(-387.21198,345.66476)" inkscape:groupmode="layer" inkscape:label="Layer">
</g>
<g id="layer2" transform="translate(-387.21198,345.66476)" inkscape:groupmode="layer" inkscape:label="fun">
</g>
<path id="path5702" inkscape:connector-curvature="0" inkscape:export-filename="/Users/audreyr/code/cw-academy/design/django-pony/sprite/django-pony1.png" sodipodi:nodetypes="zssccsccsccsssccssscccsssscz" inkscape:export-xdpi="90.10865" inkscape:export-ydpi="90.10865" fill="#FFAAAA" d="
	M13.981,22.416C7.436,28.596-2.031,41.75,0.386,47.188c2.417,5.438,4.01,7.958,11.26,6.75c7.25-1.209,16.638-8.71,16.638-8.71
	l7.146,15.856c0,0-1.812,6.646-0.604,9.062c1.208,2.418,4.229,14.502,4.229,14.502l7.25,1.208c0,0-2.417-10.876,1.208-10.876
	s3.625,12.084,3.625,12.084l5.438,0.605c0,0-1.208-12.689,1.813-14.502s22.96-0.604,22.96,4.229c0,4.834,0.328,6.206,1.208,8.761
	c0.59,1.711,0.855,3.848,0.855,3.848h6.646c0,0,0.257-5.28-1.459-9.285c-1.812-4.229-0.302-6.344,0.302-6.344
	c0.604,0,2.719-1.812,5.136,0c2.417,1.812,3.625,4.229,4.229,7.25c0.604,3.021,1.459,8.076,1.459,8.076l6.367,0.178
	c0,0-0.251-5.66-0.855-8.077c-0.604-2.417-2.137-4.406-2.742-9.845c-0.604-5.438,0.989-18.303-2.032-23.741
	s-48.117-1.031-52.951-5.261c-4.833-4.229-6.646-15.71-9.667-19.335C32.316,11.751,20.525,16.234,13.981,22.416z"/>
<path id="path5704" sodipodi:type="arc" inkscape:export-filename="/Users/audreyr/code/cw-academy/design/django-pony/sprite/django-pony1.png" inkscape:export-xdpi="90.10865" inkscape:export-ydpi="90.10865" sodipodi:cx="670.38141" sodipodi:cy="180.6317" sodipodi:rx="1.1932427" sodipodi:ry="1.1490486" fill="#FFFFFF" d="
	M22.833,30.521c0.006,2.169-1.814,3.933-4.066,3.939c-2.252,0.006-4.084-1.747-4.091-3.916c0-0.008,0-0.016,0-0.023
	c-0.007-2.169,1.813-3.933,4.066-3.939c2.252-0.007,4.084,1.747,4.091,3.916C22.833,30.505,22.833,30.513,22.833,30.521z"/>
<path id="path5706" sodipodi:type="arc" inkscape:export-filename="/Users/audreyr/code/cw-academy/design/django-pony/sprite/django-pony1.png" inkscape:export-xdpi="90.10865" inkscape:export-ydpi="90.10865" sodipodi:cx="670.38141" sodipodi:cy="180.6317" sodipodi:rx="1.1932427" sodipodi:ry="1.1490486" d="
	M20.416,30.521c0.003,0.884-0.739,1.602-1.657,1.605c-0.917,0.002-1.664-0.711-1.667-1.595c0-0.003,0-0.006,0-0.01
	c-0.003-0.884,0.739-1.602,1.657-1.605c0.917-0.002,1.664,0.712,1.667,1.595C20.416,30.514,20.416,30.518,20.416,30.521z"/>
<path id="path5708" inkscape:connector-curvature="0" inkscape:export-filename="/Users/audreyr/code/cw-academy/design/django-pony/sprite/django-pony1.png" inkscape:export-xdpi="90.10865" inkscape:export-ydpi="90.10865" fill="#FF7285" d="
	M9.76,15.971l9.399,2.991l-3.418,3.845l7.69-1.709l2.991,6.409l5.554-5.127l-0.854,10.254l5.554-2.563l2.136,12.39l3.418-2.136
	l6.836,10.253l1.709-7.69l-2.563-4.272l3.845,0.854l-8.545-7.69l2.991,0.854l-6.409-9.827l3.845,1.282l-8.118-8.118l4.7,0.854
	l-11.536-3.418l5.127-2.563l-10.681,1.709l-6.409-3.418l2.563,4.272L9.76,15.971z"/>
<path id="path5710" inkscape:connector-curvature="0" inkscape:export-filename="/Users/audreyr/code/cw-academy/design/django-pony/sprite/django-pony1.png" inkscape:export-xdpi="90.10865" inkscape:export-ydpi="90.10865" fill="#F4D7D7" d="
	M39.181,84.615l-1.237,2.476h1.237l-1.415,4.772l1.591-1.414l-0.53,3.182l7.071,0.354l-0.177-2.828l1.061,1.238l-1.237-4.597
	l1.237,0.354l-0.53-2.476L39.181,84.615z"/>
<path id="path5712" inkscape:connector-curvature="0" inkscape:export-filename="/Users/audreyr/code/cw-academy/design/django-pony/sprite/django-pony1.png" sodipodi:nodetypes="ccccccccccccc" inkscape:export-xdpi="90.10865" inkscape:export-ydpi="90.10865" fill="#F4D7D7" d="
	M51.101,86.977l-0.438,1.812h0.75l-0.75,3l1.125-0.5l-0.5,3l5.5,0.125l-0.125-3l1.125,1l-1.375-3l1.125,0.25l-0.875-2.188
	L51.101,86.977z"/>
<path id="path5716" inkscape:connector-curvature="0" inkscape:export-filename="/Users/audreyr/code/cw-academy/design/django-pony/sprite/django-pony1.png" sodipodi:nodetypes="ccccccccccccc" inkscape:export-xdpi="90.10865" inkscape:export-ydpi="90.10865" fill="#F4D7D7" d="
	M83.351,89.915l-0.438,1.5h0.75l-0.688,2.562l0.75-0.25l-0.25,2.625l6.5,0.125l-0.375-2.5l0.875,0.312l-0.75-2.438l1,0.188
	l-0.656-2.125H83.351z"/>
<path id="path5718" inkscape:connector-curvature="0" inkscape:export-filename="/Users/audreyr/code/cw-academy/design/django-pony/sprite/django-pony1.png" sodipodi:nodetypes="ccccccccccccc" inkscape:export-xdpi="90.10865" inkscape:export-ydpi="90.10865" fill="#F4D7D7" d="
	M99.735,89.642l-0.603,1.711l0.719-0.031l-0.812,2.594l0.969-0.344l-0.688,3l7.281,0.062l-0.719-2.812l0.75,0.438l-1.031-2.719
	l0.844,0.312l-0.353-1.975L99.735,89.642z"/>
<path id="path5720" inkscape:connector-curvature="0" inkscape:export-filename="/Users/audreyr/code/cw-academy/design/django-pony/sprite/django-pony1.png" sodipodi:nodetypes="ccccc" inkscape:export-xdpi="90.10865" inkscape:export-ydpi="90.10865" fill="#FF7285" d="
	M38.845,93.568l-0.239,2.365l7.336,0.48l-0.083-2.473L38.845,93.568z"/>
<path id="path5722" inkscape:connector-curvature="0" inkscape:export-filename="/Users/audreyr/code/cw-academy/design/django-pony/sprite/django-pony1.png" sodipodi:nodetypes="ccccc" inkscape:export-xdpi="90.10865" inkscape:export-ydpi="90.10865" fill="#FF7285" d="
	M51.29,94.272l-0.132,2.333l5.745,0.096l-0.088-2.312L51.29,94.272z"/>
<path id="path5724" inkscape:connector-curvature="0" inkscape:export-filename="/Users/audreyr/code/cw-academy/design/django-pony/sprite/django-pony1.png" sodipodi:nodetypes="ccccc" inkscape:export-xdpi="90.10865" inkscape:export-ydpi="90.10865" fill="#FF7285" d="
	M83.463,96.283l-0.044,2.041l6.563,0.227v-2.126L83.463,96.283z"/>
<path id="path5726" inkscape:connector-curvature="0" inkscape:export-filename="/Users/audreyr/code/cw-academy/design/django-pony/sprite/django-pony1.png" sodipodi:nodetypes="ccccc" inkscape:export-xdpi="90.10865" inkscape:export-ydpi="90.10865" fill="#FF7285" d="
	M99.329,96.526l0.044,2.3l7.38,0.057l-0.152-2.281L99.329,96.526z"/>
<g id="g5734" transform="matrix(1.1759601,0,0,1.1759601,-629.94719,-139.48501)" inkscape:export-filename="/Users/audreyr/code/cw-academy/design/django-pony/sprite/django-pony1.png" inkscape:export-xdpi="90.10865" inkscape:export-ydpi="90.10865">
	
		<path id="path5730" inkscape:transform-center-y="10.783378" inkscape:transform-center-x="12.197592" inkscape:connector-curvature="0" fill="#F4D7D7" d="
		M598.667,156.539c0,0-7.832,2.713-13.738-0.705c-5.905-3.418-12.257-24.566-12.257-24.566s-0.641-0.452,0.474-1.351
		c1.114-0.899,3.477,4.139,3.477,4.139s-1.811-4.461-0.339-4.733c1.472-0.272,4.671,5.168,4.671,5.168s-0.427-4.608,1.602-3.176
		s1.495,5.362,1.495,5.362s0.056-3.706,1.407-3.127c1.351,0.579,1.991,5.338,1.991,5.338s0.502-3.204,2.228-1.798
		c1.727,1.406,1.082,4.134,1.082,4.134s0.59-3.329,2.047-2.675C594.266,139.202,597.724,156.061,598.667,156.539z"/>
	<path id="path5732" inkscape:connector-curvature="0" fill="#F4D7D7" d="M587.326,154.035c0,0,4.835,6.732,11.631,7.344
		c6.796,0.611,24.178-13.005,24.178-13.005s0.784,0,0.392-1.377c-0.392-1.377-5.227,1.377-5.227,1.377s4.051-2.601,3.005-3.672
		c-1.045-1.071-6.796,1.53-6.796,1.53s3.006-3.519,0.523-3.519c-2.483,0-4.313,3.519-4.313,3.519s2.091-3.06,0.654-3.366
		c-1.438-0.306-4.705,3.213-4.705,3.213s1.438-2.907-0.784-2.754c-2.222,0.153-3.267,2.754-3.267,2.754s1.438-3.06-0.13-3.366
		C600.918,142.407,588.371,154.188,587.326,154.035L587.326,154.035z"/>
</g>
<path id="path5738" inkscape:connector-curvature="0" inkscape:export-filename="/Users/audreyr/code/cw-academy/design/django-pony/sprite/django-pony1.png" inkscape:export-xdpi="90.10865" inkscape:export-ydpi="90.10865" fill="#FF7285" d="
	M97.788,47.915c0,0,0-5.5,2.5-6s8,1.25,8,1.25l-1.75,1.75l10,3.75l-3.75,1.75l3.25,2.75c0,0-5.5,2-8.75,0.5
	S97.788,47.915,97.788,47.915z"/>
<path id="path3671" inkscape:connector-curvature="0" inkscape:export-filename="/Users/audreyr/code/cw-academy/design/django-pony/sprite/django-pony2.png" sodipodi:nodetypes="zssccsccsccsssccssscccsssscz" inkscape:export-xdpi="90.10865" inkscape:export-ydpi="90.10865" fill="#FFAAAA" d="
	M152.48,21.415c-6.544,6.181-16.011,19.335-13.594,24.773c2.416,5.438,4.01,7.958,11.26,6.75c7.25-1.209,16.637-8.71,16.637-8.71
	l7.147,15.856c0,0-1.812,6.646-0.604,9.062c1.209,2.418,4.23,14.502,4.23,14.502l7.25,1.208c0,0-2.417-10.876,1.209-10.876
	c3.625,0,3.625,12.084,3.625,12.084l5.438,0.605c0,0-1.208-12.689,1.812-14.502c3.021-1.812,22.961-0.604,22.961,4.229
	c0,4.834,0.327,6.206,1.208,8.761c0.59,1.711,0.854,3.848,0.854,3.848h6.646c0,0,0.258-5.28-1.459-9.285
	c-1.812-4.229-0.302-6.344,0.303-6.344c0.604,0,2.719-1.812,5.135,0c2.418,1.812,3.626,4.229,4.23,7.25
	c0.604,3.021,1.459,8.076,1.459,8.076l6.367,0.178c0,0-0.252-5.66-0.855-8.077c-0.604-2.417-2.137-4.406-2.742-9.845
	c-0.604-5.438,0.989-18.303-2.031-23.741c-3.021-5.438-48.117-1.031-52.951-5.261s-6.646-15.71-9.668-19.335
	C170.816,10.751,159.025,15.234,152.48,21.415L152.48,21.415z"/>
<path id="path3673" sodipodi:type="arc" inkscape:export-filename="/Users/audreyr/code/cw-academy/design/django-pony/sprite/django-pony2.png" inkscape:export-xdpi="90.10865" inkscape:export-ydpi="90.10865" sodipodi:cx="670.38141" sodipodi:cy="180.6317" sodipodi:rx="1.1932427" sodipodi:ry="1.1490486" fill="#FFFFFF" d="
	M161.333,29.52c0.006,2.169-1.814,3.933-4.066,3.939c-2.253,0.006-4.084-1.747-4.092-3.916c0-0.008,0-0.016,0-0.023
	c-0.006-2.169,1.814-3.933,4.066-3.939c2.252-0.007,4.084,1.747,4.092,3.916C161.333,29.505,161.333,29.513,161.333,29.52z"/>
<path id="path3675" sodipodi:type="arc" inkscape:export-filename="/Users/audreyr/code/cw-academy/design/django-pony/sprite/django-pony2.png" inkscape:export-xdpi="90.10865" inkscape:export-ydpi="90.10865" sodipodi:cx="670.38141" sodipodi:cy="180.6317" sodipodi:rx="1.1932427" sodipodi:ry="1.1490486" d="
	M158.916,29.52c0.004,0.884-0.738,1.602-1.656,1.605c-0.918,0.002-1.664-0.711-1.666-1.595c0-0.003,0-0.006,0-0.01
	c-0.004-0.884,0.738-1.602,1.656-1.605c0.918-0.002,1.664,0.712,1.666,1.595C158.916,29.514,158.916,29.518,158.916,29.52z"/>
<path id="path3679" inkscape:connector-curvature="0" inkscape:export-filename="/Users/audreyr/code/cw-academy/design/django-pony/sprite/django-pony2.png" inkscape:export-xdpi="90.10865" inkscape:export-ydpi="90.10865" fill="#FF7285" d="
	M148.26,14.971l9.399,2.991l-3.418,3.845l7.69-1.709l2.991,6.409l5.554-5.127l-0.854,10.254l5.555-2.563l2.136,12.39l3.418-2.136
	l6.836,10.254l1.709-7.69l-2.563-4.272l3.846,0.854l-8.545-7.69l2.99,0.854l-6.408-9.827l3.845,1.282l-8.118-8.118l4.7,0.854
	l-11.536-3.418l5.127-2.563l-10.681,1.709l-6.409-3.418l2.564,4.272L148.26,14.971z"/>
<path id="path3681" inkscape:connector-curvature="0" inkscape:export-filename="/Users/audreyr/code/cw-academy/design/django-pony/sprite/django-pony2.png" inkscape:export-xdpi="90.10865" inkscape:export-ydpi="90.10865" fill="#F4D7D7" d="
	M177.681,83.615l-1.238,2.476h1.238l-1.414,4.772l1.59-1.414l-0.529,3.182l7.07,0.354l-0.177-2.828l1.061,1.238l-1.237-4.597
	l1.237,0.354l-0.53-2.476L177.681,83.615z"/>
<path id="path3683" inkscape:connector-curvature="0" inkscape:export-filename="/Users/audreyr/code/cw-academy/design/django-pony/sprite/django-pony2.png" sodipodi:nodetypes="ccccccccccccc" inkscape:export-xdpi="90.10865" inkscape:export-ydpi="90.10865" fill="#F4D7D7" d="
	M189.601,85.977l-0.438,1.812h0.75l-0.75,3l1.125-0.5l-0.5,3l5.5,0.125l-0.125-3l1.125,1l-1.375-3l1.125,0.25l-0.875-2.188
	L189.601,85.977z"/>
<path id="path3685" inkscape:connector-curvature="0" inkscape:export-filename="/Users/audreyr/code/cw-academy/design/django-pony/sprite/django-pony2.png" sodipodi:nodetypes="ccccccccccccc" inkscape:export-xdpi="90.10865" inkscape:export-ydpi="90.10865" fill="#F4D7D7" d="
	M221.851,88.915l-0.438,1.5h0.75l-0.688,2.562l0.75-0.25l-0.25,2.625l6.5,0.125l-0.375-2.5l0.875,0.312l-0.75-2.438l1,0.188
	l-0.656-2.125H221.851z"/>
<path id="path3687" inkscape:connector-curvature="0" inkscape:export-filename="/Users/audreyr/code/cw-academy/design/django-pony/sprite/django-pony2.png" sodipodi:nodetypes="ccccccccccccc" inkscape:export-xdpi="90.10865" inkscape:export-ydpi="90.10865" fill="#F4D7D7" d="
	M238.235,88.642l-0.603,1.711l0.719-0.031l-0.812,2.594l0.969-0.344l-0.688,3l7.281,0.062l-0.719-2.812l0.75,0.438l-1.031-2.719
	l0.844,0.312l-0.354-1.975L238.235,88.642z"/>
<path id="path3689" inkscape:connector-curvature="0" inkscape:export-filename="/Users/audreyr/code/cw-academy/design/django-pony/sprite/django-pony2.png" sodipodi:nodetypes="ccccc" inkscape:export-xdpi="90.10865" inkscape:export-ydpi="90.10865" fill="#FF7285" d="
	M177.345,92.568l-0.239,2.365l7.337,0.48l-0.084-2.473L177.345,92.568z"/>
<path id="path3691" inkscape:connector-curvature="0" inkscape:export-filename="/Users/audreyr/code/cw-academy/design/django-pony/sprite/django-pony2.png" sodipodi:nodetypes="ccccc" inkscape:export-xdpi="90.10865" inkscape:export-ydpi="90.10865" fill="#FF7285" d="
	M189.79,93.272l-0.132,2.333l5.744,0.096l-0.088-2.312L189.79,93.272z"/>
<path id="path3693" inkscape:connector-curvature="0" inkscape:export-filename="/Users/audreyr/code/cw-academy/design/django-pony/sprite/django-pony2.png" sodipodi:nodetypes="ccccc" inkscape:export-xdpi="90.10865" inkscape:export-ydpi="90.10865" fill="#FF7285" d="
	M221.962,95.283l-0.043,2.041l6.562,0.227v-2.126L221.962,95.283z"/>
<path id="path3695" inkscape:connector-curvature="0" inkscape:export-filename="/Users/audreyr/code/cw-academy/design/django-pony/sprite/django-pony2.png" sodipodi:nodetypes="ccccc" inkscape:export-xdpi="90.10865" inkscape:export-ydpi="90.10865" fill="#FF7285" d="
	M237.829,95.526l0.044,2.3l7.381,0.057l-0.152-2.281L237.829,95.526z"/>
<path id="path3699" inkscape:transform-center-y="-14.647814" inkscape:transform-center-x="5.4212678" inkscape:connector-curvature="0" inkscape:export-filename="/Users/audreyr/code/cw-academy/design/django-pony/sprite/django-pony2.png" inkscape:export-xdpi="90.10865" inkscape:export-ydpi="90.10865" fill="#F4D7D7" d="
	M212.539,42.667c0,0-8.914,3.944-16.168,0.515c-7.255-3.429-16.764-27.591-16.764-27.591s-0.795-0.467,0.424-1.63
	c1.217-1.163,4.479,4.511,4.479,4.511s-2.557-5.051-0.859-5.514c1.698-0.463,5.979,5.601,5.979,5.601s-0.951-5.358,1.566-3.879
	s2.275,6.137,2.275,6.137s-0.296-4.348,1.344-3.802s2.855,6.061,2.855,6.061s0.274-3.804,2.436-2.325
	c2.162,1.479,1.672,4.739,1.672,4.739s0.365-3.958,2.138-3.334S211.387,42.2,212.539,42.667z"/>
<path id="path3701" inkscape:transform-center-y="-3.4969171" inkscape:transform-center-x="-19.581164" inkscape:connector-curvature="0" inkscape:export-filename="/Users/audreyr/code/cw-academy/design/django-pony/sprite/django-pony2.png" inkscape:export-xdpi="90.10865" inkscape:export-ydpi="90.10865" fill="#F4D7D7" d="
	M199.523,40.418c0,0,4.809,8.478,12.679,10.046c7.869,1.568,29.901-12.173,29.901-12.173s0.916,0.098,0.631-1.561
	s-6.285,0.955-6.285,0.955s5.063-2.533,3.975-3.917c-1.088-1.383-8.138,0.937-8.138,0.937s3.956-3.737,1.053-4.049
	s-5.483,3.573-5.483,3.573s2.828-3.315,1.186-3.854s-5.904,3.167-5.904,3.167s2.046-3.219-0.571-3.318
	c-2.616-0.1-4.165,2.81-4.165,2.81s2.064-3.397,0.27-3.952C216.874,28.528,200.726,40.728,199.523,40.418L199.523,40.418z"/>
<path id="path3703" inkscape:connector-curvature="0" inkscape:export-filename="/Users/audreyr/code/cw-academy/design/django-pony/sprite/django-pony2.png" inkscape:export-xdpi="90.10865" inkscape:export-ydpi="90.10865" fill="#FF7285" d="
	M236.289,46.915c0,0,0-5.5,2.5-6s8,1.25,8,1.25l-1.75,1.75l10,3.75l-3.75,1.75l3.25,2.75c0,0-5.5,2-8.75,0.5
	S236.289,46.915,236.289,46.915z"/>
</svg>
